<svg xmlns="http://www.w3.org/2000/svg" viewBox="0 0 32 32" fill="currentColor">
  <path d="M10.94 7.03l-1.48-2.56a.5.5 0 01.87-.5l1.55 2.69a9.1 9.1 0 014.58-1.23c1.65 0 3.24.43 4.6 1.24l1.55-2.7a.5.5 0 01.87.5l-1.48 2.56a8.06 8.06 0 013.84 6.89v7.43c0 1.13-.92 2.05-2.05 2.05h-.78v3.3a.99.99 0 01-1.98 0v-3.3h-2.26v3.3a.99.99 0 01-1.98 0v-3.3h-2.26v3.3a.99.99 0 01-1.98 0v-3.3h-.78a2.05 2.05 0 01-2.05-2.05v-7.43a8.06 8.06 0 013.85-6.89zm-1.71 6.89v7.43c0 .38.31.69.69.69h12.16c.38 0 .69-.31.69-.69v-7.43c0-3.68-3-6.67-6.77-6.67s-6.77 3-6.77 6.67zm2.14-4.01a.88.88 0 100-1.77.88.88 0 000 1.77zm9.26 0a.88.88 0 100-1.77.88.88 0 000 1.77z"/>
</svg>
