<svg xmlns="http://www.w3.org/2000/svg" viewBox="0 0 32 32" fill="currentColor">
  <path d="M21.62 11.56c-1.05-.09-2.28.7-3.03.7-.78 0-1.99-.67-3.27-.65-1.68.03-3.21.98-4.06 2.48-1.74 3.02-.44 7.48 1.24 9.93.82 1.19 1.79 2.52 3.08 2.47 1.21-.05 1.67-.8 3.14-.8 1.47 0 1.89.8 3.16.77 1.31-.03 2.14-1.2 2.96-2.39.93-1.33 1.31-2.62 1.33-2.68-.03-.02-2.55-.98-2.58-3.89-.03-2.45 1.99-3.62 2.08-3.68-1.14-1.66-2.85-1.84-3.09-1.86zm-2.2-4.08c.66-.82 1.1-1.97.98-3.12-1.01.04-2.22.67-2.93 1.49-.64.73-1.15 1.9-1.01 3.03 1.09.09 2.2-.55 2.96-1.4z"/>
</svg>
