<svg xmlns="http://www.w3.org/2000/svg" viewBox="0 0 32 32" fill="currentColor">
  <path d="M16 3c-2.65 0-4.8 2.15-4.8 4.8v3.62c-.9.57-1.64 1.37-2.16 2.33-.77 1.45-1.08 3.18-.92 5.15.2 2.4 1.15 4.36 2.8 5.8 1.04.91 2.36 1.55 3.82 1.89.25.26.55.48.87.65.44.24.93.36 1.41.36s.97-.12 1.41-.36c.33-.17.62-.39.87-.65 1.46-.34 2.78-.98 3.82-1.89 1.65-1.44 2.6-3.4 2.8-5.8.16-1.97-.15-3.7-.92-5.15-.52-.96-1.27-1.76-2.16-2.33V7.8c0-2.65-2.15-4.8-4.8-4.8zm-3.2 4.8a3.2 3.2 0 116.4 0v3.07c-.98-.34-2.08-.53-3.2-.53s-2.22.19-3.2.53zm-1.7 5.24c.53-.99 1.82-2.31 4.9-2.31s4.37 1.32 4.9 2.31c.6 1.12.86 2.55.72 4.26-.15 1.84-.85 3.32-2.05 4.38-1.03.9-2.4 1.37-4.03 1.37s-3-.47-4.03-1.37c-1.2-1.06-1.9-2.54-2.05-4.38-.14-1.71.12-3.14.72-4.26zm1.1 5.56c.03.44.16.85.4 1.22.41.65 1.19 1.26 2.85 1.26s2.44-.61 2.85-1.26c.24-.37.37-.78.4-1.22.02-.27-.19-.5-.46-.5h-5.58c-.27 0-.48.23-.46.5zm-.43-2.65c.44 0 .8-.36.8-.8s-.36-.8-.8-.8-.8.36-.8.8.36.8.8.8zm6.46 0c.44 0 .8-.36.8-.8s-.36-.8-.8-.8-.8.36-.8.8.36.8.8.8z"/>
</svg>
